<svg width="34" height="34" viewBox="0 0 34 34" fill="none" xmlns="http://www.w3.org/2000/svg">
<rect width="34" height="34" rx="17" fill="black" fill-opacity="0.12"/>
<g clip-path="url(#clip0_20351_3109)">
<path d="M16.9999 8.16016C12.1056 8.16016 8.15991 12.1058 8.15991 17.0002C8.15991 21.8945 12.1056 25.8402 16.9999 25.8402C21.8943 25.8402 25.8399 21.8945 25.8399 17.0002C25.8399 12.1058 21.8943 8.16016 16.9999 8.16016ZM20.924 17.4098L15.0379 20.8596C14.9732 20.9027 14.8654 20.9243 14.8007 20.9243C14.736 20.9243 14.6282 20.9027 14.5635 20.8596C14.4126 20.7518 14.3264 20.6224 14.3264 20.4499V13.572H14.3048C14.3048 13.3995 14.4126 13.227 14.542 13.1623C14.6713 13.0976 14.8869 13.0545 15.0379 13.1623L20.924 16.5905C21.0749 16.6983 21.1612 16.8277 21.1612 17.0002C21.1612 17.1726 21.0534 17.3451 20.924 17.4098Z" fill="white"/>
</g>
<defs>
<clipPath id="clip0_20351_3109">
<rect width="17.68" height="17.68" fill="white" transform="translate(8.15991 8.16016)"/>
</clipPath>
</defs>
</svg>
