<svg width="48" height="48" viewBox="0 0 48 48" fill="none" xmlns="http://www.w3.org/2000/svg">
<rect width="48" height="48" rx="12" fill="url(#paint0_linear_20428_1204)"/>
<path d="M32.9926 17.3408C33.1012 17.4492 33.1874 17.5779 33.2463 17.7197C33.3051 17.8614 33.3353 18.0133 33.3353 18.1668C33.3353 18.3203 33.3051 18.4722 33.2463 18.6139C33.1874 18.7557 33.1012 18.8844 32.9926 18.9928L22.4926 29.4928C22.3842 29.6014 22.2555 29.6876 22.1137 29.7465C21.972 29.8053 21.8201 29.8356 21.6666 29.8356C21.5131 29.8356 21.3612 29.8053 21.2194 29.7465C21.0777 29.6876 20.949 29.6014 20.8406 29.4928L16.1739 24.8261C15.9549 24.6071 15.8318 24.3099 15.8318 24.0001C15.8318 23.6903 15.9549 23.3932 16.1739 23.1741C16.393 22.9551 16.6901 22.832 16.9999 22.832C17.3097 22.832 17.6069 22.9551 17.8259 23.1741L21.6666 27.0171L31.3406 17.3408C31.449 17.2322 31.5777 17.146 31.7194 17.0871C31.8612 17.0283 32.0131 16.998 32.1666 16.998C32.3201 16.998 32.472 17.0283 32.6137 17.0871C32.7555 17.146 32.8842 17.2322 32.9926 17.3408Z" fill="white"/>
<defs>
<linearGradient id="paint0_linear_20428_1204" x1="24" y1="0" x2="24" y2="48" gradientUnits="userSpaceOnUse">
<stop stop-color="#2B8FFF"/>
<stop offset="1" stop-color="#0758B2"/>
</linearGradient>
</defs>
</svg>
