<svg width="30" height="30" viewBox="0 0 30 30" fill="none" xmlns="http://www.w3.org/2000/svg">
<rect x="0.2" y="0.2" width="29.6" height="29.6" rx="4.08571" fill="white" fill-opacity="0.1"/>
<rect x="0.2" y="0.2" width="29.6" height="29.6" rx="4.08571" stroke="#2B8FFF" stroke-width="0.4"/>
<path d="M16.1431 17.6431H19.8931V21.3931M13.1431 11.6431H9.39309V7.89307M20.2066 12.3953C19.7861 11.3545 19.082 10.4524 18.1744 9.79181C17.2668 9.13118 16.192 8.73842 15.0723 8.65819C13.9526 8.57795 12.8328 8.81345 11.8403 9.33792C10.8477 9.8624 10.0222 10.6548 9.45759 11.6251M9.07959 16.8908C9.50019 17.9315 10.2043 18.8333 11.1118 19.4938C12.0194 20.1543 13.094 20.547 14.2136 20.6272C15.3331 20.7074 16.4528 20.472 17.4452 19.9477C18.4377 19.4233 19.2632 18.6311 19.8278 17.6611" stroke="#2B8FFF" stroke-width="0.9" stroke-linecap="round" stroke-linejoin="round"/>
</svg>
