<svg width="40" height="40" viewBox="0 0 40 40" fill="none" xmlns="http://www.w3.org/2000/svg">
<rect width="40" height="40" rx="20" fill="#FAFCFF" fill-opacity="0.1"/>
<g clip-path="url(#clip0_20350_2724)">
<path d="M14.2126 21.0474C14.8683 21.3272 15.1582 21.7351 15.5664 22.3047C15.6389 22.4018 15.7114 22.4989 15.7861 22.5989C15.9282 22.7892 16.0692 22.9803 16.2088 23.1725C16.3864 23.4109 16.5767 23.6398 16.7682 23.8672C17.1071 24.3202 17.0941 24.6036 17.0312 25.1562C16.875 25.3125 16.875 25.3125 16.4746 25.3223C16.3489 25.319 16.2232 25.3158 16.0938 25.3125C16.4744 26.7051 16.9876 27.542 18.2812 28.2812C18.8009 28.4913 19.2476 28.5976 19.8047 28.6719C20.3125 28.75 20.3125 28.75 20.625 29.0625C20.6543 29.4629 20.6543 29.4629 20.625 29.8438C20.2164 30.2523 19.0736 30.0444 18.5254 30.0488C18.2554 30.0556 18.2554 30.0556 17.98 30.0626C16.3417 30.0746 15.0856 29.7315 13.8782 28.5925C13.0097 27.6421 12.3438 26.6301 12.3438 25.3125C12.1955 25.3189 12.0473 25.3254 11.8945 25.332C11.4062 25.3125 11.4062 25.3125 11.0938 25C11.1086 24.1396 11.5157 23.6565 12.0703 23.0469C12.2209 22.876 12.3714 22.7051 12.522 22.5342C12.597 22.4518 12.672 22.3694 12.7493 22.2845C12.9736 22.0338 12.9736 22.0338 13.1662 21.7535C13.4931 21.3006 13.6437 21.1044 14.2126 21.0474Z" fill="#EBF5FF"/>
<path d="M21.4741 9.95136C21.6541 9.94682 21.8341 9.94229 22.0195 9.93762C23.6578 9.92554 24.9139 10.2686 26.1213 11.4077C26.9898 12.3581 27.6558 13.3701 27.6558 14.6877C27.804 14.6812 27.9522 14.6748 28.105 14.6682C28.5933 14.6877 28.5933 14.6877 28.9058 15.0002C28.8909 15.8606 28.4838 16.3437 27.9292 16.9533C27.7786 17.1242 27.6281 17.2951 27.4775 17.466C27.4025 17.5484 27.3275 17.6308 27.2502 17.7156C27.0259 17.9663 27.0259 17.9663 26.8333 18.2466C26.6426 18.5109 26.6426 18.5109 26.2495 18.9064C25.7869 18.9528 25.7869 18.9528 25.312 18.7502C24.9697 18.4327 24.7045 18.0742 24.4331 17.6955C24.3606 17.5984 24.2881 17.5013 24.2134 17.4013C24.0713 17.211 23.9303 17.0198 23.7907 16.8277C23.6131 16.5893 23.4229 16.3604 23.2313 16.133C22.8924 15.68 22.9055 15.3966 22.9683 14.8439C23.1245 14.6877 23.1245 14.6877 23.5249 14.6779C23.7134 14.6828 23.7134 14.6828 23.9058 14.6877C23.5251 13.2951 23.0119 12.4581 21.7183 11.7189C21.1986 11.5088 20.7519 11.4026 20.1948 11.3283C19.687 11.2502 19.687 11.2502 19.3745 10.9377C19.3452 10.5373 19.3452 10.5373 19.3745 10.1564C19.7831 9.74784 20.9259 9.95582 21.4741 9.95136Z" fill="#EBF5FF"/>
<path d="M11.0931 15.7812C11.4008 15.9327 11.7048 16.0862 12.0032 16.2555C13.0667 16.8419 13.9925 17.0156 15.1752 16.6895C15.8494 16.4619 16.4296 16.1602 17.0306 15.7812C18.1996 17.0135 18.333 18.1822 18.3276 19.8529C18.2806 20.3125 18.2806 20.3125 17.9681 20.625C17.635 20.6636 17.635 20.6636 17.218 20.663C17.0621 20.6634 16.9062 20.6639 16.7456 20.6644C16.5768 20.6633 16.408 20.6622 16.2341 20.661C15.9752 20.6609 15.9752 20.6609 15.7111 20.6608C15.3458 20.6603 14.9805 20.6591 14.6153 20.6572C14.0539 20.6543 13.4926 20.654 12.9312 20.654C12.5771 20.6532 12.223 20.6523 11.8689 20.6512C11.6998 20.6511 11.5307 20.6509 11.3564 20.6507C11.2011 20.6497 11.0457 20.6487 10.8856 20.6477C10.7481 20.6471 10.6106 20.6465 10.4689 20.6459C10.1556 20.625 10.1556 20.625 9.99937 20.4688C9.97091 20.0205 9.95587 19.5795 9.95054 19.1309C9.94601 19.0079 9.94148 18.8849 9.93681 18.7582C9.92409 17.5713 10.3363 16.6894 11.0931 15.7812Z" fill="#EBF5FF"/>
<path d="M22.9682 25.1562C23.0872 25.2221 23.2063 25.288 23.3289 25.3558C24.6461 26.0547 25.6017 26.4542 27.0698 26.0645C27.6847 25.8595 28.0976 25.5767 28.5932 25.1562C29.1335 25.3363 29.1879 25.4383 29.4721 25.9082C29.5718 26.0692 29.5718 26.0692 29.6735 26.2335C29.9441 26.7581 30.0192 27.2377 30.0202 27.8241C30.0205 27.9998 30.0205 27.9998 30.0208 28.179C30.0202 28.2998 30.0196 28.4205 30.019 28.5449C30.0199 28.7288 30.0199 28.7288 30.0208 28.9163C30.0192 29.824 30.0192 29.824 29.8432 30C29.5938 30.0146 29.3438 30.0184 29.094 30.0177C28.9344 30.0177 28.7749 30.0177 28.6105 30.0177C28.437 30.0169 28.2635 30.0161 28.0848 30.0153C27.9081 30.015 27.7315 30.0148 27.5495 30.0146C26.9827 30.0137 26.4159 30.0117 25.8491 30.0098C25.4659 30.009 25.0827 30.0083 24.6995 30.0076C23.7578 30.0059 22.8161 30.0033 21.8745 30C21.4277 29.1064 21.621 27.6533 21.9037 26.7188C22.1488 26.0884 22.505 25.6445 22.9682 25.1562Z" fill="#EBF5FF"/>
<path d="M15.5273 10.1662C16.2017 10.6639 16.7634 11.2281 17.0312 12.0314C17.135 13.1961 17.1318 14.0587 16.4062 15.0001C15.5295 15.8111 14.8766 16.0017 13.7011 15.9767C12.7483 15.8881 12.1696 15.3933 11.5624 14.6876C11.0206 13.8843 10.9686 13.1272 11.0937 12.1876C11.3433 11.2457 11.8887 10.6668 12.7129 10.1668C13.6387 9.79233 14.59 9.87109 15.5273 10.1662Z" fill="#EBF5FF"/>
<path d="M27.2462 19.5606C28.027 20.0997 28.583 20.6605 28.9064 21.5626C29.0182 22.5014 28.9789 23.26 28.4376 24.0626C27.8321 24.7663 27.2599 25.2371 26.3209 25.3681C25.2577 25.4225 24.5579 25.2305 23.7501 24.5313C22.9674 23.6884 22.9142 22.9928 22.9249 21.8775C23.0051 21.0175 23.3493 20.5388 23.9845 19.9512C25.016 19.255 26.0562 19.1419 27.2462 19.5606Z" fill="#EBF5FF"/>
</g>
<defs>
<clipPath id="clip0_20350_2724">
<rect width="20" height="20" fill="white" transform="translate(10 10)"/>
</clipPath>
</defs>
</svg>
