<svg width="30" height="30" viewBox="0 0 30 30" fill="none" xmlns="http://www.w3.org/2000/svg">
<rect width="30" height="30" rx="12" fill="#1661B9" fill-opacity="0.29"/>
<path d="M15 8.25C14.1136 8.25 13.2358 8.42459 12.4169 8.76381C11.5979 9.10303 10.8538 9.60023 10.227 10.227C9.60023 10.8538 9.10303 11.5979 8.76381 12.4169C8.42459 13.2358 8.25 14.1136 8.25 15C8.25 15.8864 8.42459 16.7642 8.76381 17.5831C9.10303 18.4021 9.60023 19.1462 10.227 19.773C10.8538 20.3998 11.5979 20.897 12.4169 21.2362C13.2358 21.5754 14.1136 21.75 15 21.75C16.7902 21.75 18.5071 21.0388 19.773 19.773C21.0388 18.5071 21.75 16.7902 21.75 15C21.75 13.2098 21.0388 11.4929 19.773 10.227C18.5071 8.96116 16.7902 8.25 15 8.25ZM7.125 15C7.125 12.9114 7.95469 10.9084 9.43153 9.43153C10.9084 7.95469 12.9114 7.125 15 7.125C17.0886 7.125 19.0916 7.95469 20.5685 9.43153C22.0453 10.9084 22.875 12.9114 22.875 15C22.875 17.0886 22.0453 19.0916 20.5685 20.5685C19.0916 22.0453 17.0886 22.875 15 22.875C12.9114 22.875 10.9084 22.0453 9.43153 20.5685C7.95469 19.0916 7.125 17.0886 7.125 15ZM15 19.7813C17.1746 19.7813 18.9375 18.4155 18.9375 16.3658C18.9375 15.6109 18.3255 15 17.5718 15H12.4294C11.6745 15 11.0636 15.612 11.0636 16.3658C11.0636 18.4144 12.8265 19.7813 15.0011 19.7813H15ZM15 14.1563C15.2769 14.1563 15.5512 14.1019 15.8071 13.9959C16.0629 13.89 16.2954 13.7348 16.4913 13.539C16.6872 13.3432 16.8426 13.1108 16.9486 12.855C17.0547 12.5991 17.1093 12.3249 17.1094 12.048C17.1095 11.7711 17.055 11.4968 16.9491 11.241C16.8432 10.9851 16.6879 10.7526 16.4921 10.5567C16.2963 10.3608 16.0639 10.2054 15.8081 10.0994C15.5523 9.99332 15.2781 9.9387 15.0011 9.93863C14.4418 9.93848 13.9054 10.1605 13.5098 10.5559C13.1142 10.9513 12.8919 11.4876 12.8918 12.0469C12.8916 12.6062 13.1136 13.1426 13.509 13.5382C13.9044 13.9338 14.4407 14.1561 15 14.1563Z" fill="white"/>
</svg>
