<svg width="40" height="40" viewBox="0 0 40 40" fill="none" xmlns="http://www.w3.org/2000/svg">
<rect width="40" height="40" rx="20" fill="#FAFCFF" fill-opacity="0.1"/>
<g clip-path="url(#clip0_20350_2768)">
<path d="M24.6875 10.6252C26.2078 11.581 27.1883 12.8503 27.6563 14.59C27.9892 16.3484 27.7715 17.9727 26.875 19.5314C25.7822 21.0219 24.4913 22.0101 22.6563 22.3439C20.6985 22.5197 19.0841 22.1111 17.5 20.9377C16.3177 19.8888 15.539 18.3766 15.4315 16.7965C15.3734 14.6736 15.8361 13.1588 17.3035 11.5828C19.2125 9.74114 22.3515 9.31211 24.6875 10.6252ZM22.6563 12.5002C22.2326 13.1604 21.9272 13.846 21.6236 14.5662C21.5718 14.6885 21.5201 14.8108 21.4668 14.9367C21.3583 15.1941 21.2501 15.4516 21.1422 15.7093C20.9766 16.1037 20.8085 16.4969 20.6403 16.8901C20.5349 17.1408 20.4298 17.3916 20.3247 17.6424C20.2741 17.7598 20.2235 17.8771 20.1714 17.998C19.9301 18.5826 19.8036 18.9278 20 19.5314C20.2063 19.5314 20.4125 19.5314 20.625 19.5314C21.2918 18.2452 21.8888 16.9426 22.4429 15.6048C22.5706 15.2977 22.7005 14.9916 22.8305 14.6856C22.9124 14.4892 22.9941 14.2928 23.0756 14.0963C23.149 13.9208 23.2224 13.7454 23.298 13.5646C23.4867 13.1196 23.4867 13.1196 23.2813 12.6564C22.9664 12.5419 22.9664 12.5419 22.6563 12.5002ZM19.2188 14.0627C19.1797 14.4664 19.1797 14.4664 19.2188 14.8439C19.5826 15.0312 19.5826 15.0312 20 15.1564C20.1547 15.0533 20.3094 14.9502 20.4688 14.8439C20.4172 14.5346 20.3657 14.2252 20.3125 13.9064C19.7679 13.7186 19.7375 13.7169 19.2188 14.0627ZM23.125 17.1877C22.893 17.3424 22.893 17.3424 22.6563 17.5002C22.6172 17.9039 22.6172 17.9039 22.6563 18.2814C23.0201 18.4687 23.0201 18.4687 23.4375 18.5939C23.5922 18.4908 23.7469 18.3877 23.9063 18.2814C23.9454 17.8777 23.9454 17.8777 23.9063 17.5002C23.5424 17.3129 23.5424 17.3129 23.125 17.1877Z" fill="#EBF5FF"/>
<path d="M16.3178 22.2362C16.5002 22.2364 16.5002 22.2364 16.6864 22.2366C17.73 22.2727 18.5318 22.5898 19.4635 23.0355C20.5431 23.5289 21.5557 23.563 22.7283 23.5674C23.2806 23.5936 23.2806 23.5936 23.5931 23.9061C23.6619 24.417 23.6975 24.8127 23.4399 25.2745C23.0603 25.7582 22.7856 25.9972 22.1869 26.0936C21.8707 26.1165 21.554 26.1322 21.2372 26.1431C21.0559 26.1496 20.8746 26.1562 20.6879 26.1629C20.4993 26.169 20.3108 26.1752 20.1166 26.1815C19.9256 26.1883 19.7347 26.195 19.538 26.202C19.0668 26.2185 18.5956 26.2345 18.1244 26.2499C18.176 26.4561 18.2275 26.6624 18.2806 26.8749C18.9576 26.9069 19.6344 26.9261 20.3119 26.9432C20.5026 26.9524 20.6934 26.9616 20.8899 26.971C22.1436 26.9973 22.1436 26.9973 23.197 26.3897C23.3859 26.1913 23.5703 25.9884 23.7494 25.7811C23.9247 25.6022 24.1007 25.424 24.2774 25.2465C24.5279 24.9858 24.7769 24.7241 25.0235 24.4597C25.6733 23.7885 26.2761 23.3901 27.2162 23.2189C28.1913 23.2315 28.8697 23.5176 29.6869 24.0624C29.8236 24.3456 29.8236 24.3456 29.8431 24.6874C29.507 25.3533 29.0355 25.8555 28.5126 26.3774C28.3874 26.5036 28.3874 26.5036 28.2597 26.6323C28.0836 26.8093 27.9071 26.9859 27.7302 27.1622C27.462 27.4299 27.1959 27.6996 26.9299 27.9695C26.7577 28.1421 26.5854 28.3145 26.413 28.4868C26.3346 28.5666 26.2563 28.6464 26.1756 28.7285C26.0607 28.842 26.0607 28.842 25.9435 28.9577C25.8779 29.0234 25.8124 29.089 25.7448 29.1567C24.9056 29.8185 24.3063 30.0785 23.2319 30.0708C23.1235 30.0709 23.0151 30.071 22.9035 30.0711C22.5492 30.0707 22.1951 30.0658 21.8408 30.0609C21.5937 30.0597 21.3465 30.0589 21.0993 30.0582C20.4517 30.0559 19.8042 30.0497 19.1567 30.0428C18.4947 30.0364 17.8327 30.0335 17.1707 30.0304C15.874 30.0237 14.5773 30.0131 13.2806 29.9999C13.269 29.1492 13.2605 28.2986 13.2549 27.4478C13.2525 27.1587 13.2494 26.8695 13.2453 26.5804C13.2396 26.1638 13.2369 25.7473 13.2349 25.3307C13.2325 25.2022 13.23 25.0738 13.2275 24.9414C13.2273 24.1693 13.3092 23.6315 13.7494 22.9686C14.4902 22.3591 15.3861 22.2278 16.3178 22.2362Z" fill="#EBF5FF"/>
<path d="M10.4685 24.2188C11.0873 24.2188 11.706 24.2188 12.3435 24.2188C12.3435 26.1266 12.3435 28.0344 12.3435 30C11.7248 30 11.106 30 10.4685 30C10.0842 29.4235 10.1157 29.1299 10.1145 28.4424C10.1142 28.3366 10.1139 28.2309 10.1136 28.122C10.1134 27.8987 10.114 27.6754 10.1153 27.4522C10.1169 27.1106 10.1153 26.7692 10.1133 26.4276C10.1135 26.2105 10.1139 25.9934 10.1145 25.7764C10.1149 25.5789 10.1152 25.3814 10.1156 25.1779C10.156 24.6875 10.156 24.6875 10.4685 24.2188Z" fill="#EBF5FF"/>
</g>
<defs>
<clipPath id="clip0_20350_2768">
<rect width="20" height="20" fill="white" transform="translate(10 10)"/>
</clipPath>
</defs>
</svg>
