<svg width="24" height="24" viewBox="0 0 24 24" fill="none" xmlns="http://www.w3.org/2000/svg">
<path d="M20.8929 6.89783C20.8183 6.52109 20.6502 6.16502 20.405 5.86566C20.3552 5.80281 20.3031 5.7469 20.2461 5.69018C19.8098 5.25157 19.2029 5 18.581 5H5.35575C4.72687 5 4.13541 5.24523 3.69032 5.69043C3.63399 5.74662 3.58176 5.80309 3.53005 5.86794C3.28587 6.16603 3.11852 6.52162 3.04575 6.89889C3.01534 7.04704 3 7.20055 3 7.35585V16.6444C3 16.9675 3.06565 17.2822 3.1958 17.5813C3.30843 17.847 3.47932 18.0988 3.69018 18.3096C3.74329 18.3624 3.79605 18.4112 3.85238 18.4587C4.27397 18.8079 4.8078 19 5.35575 19H18.581C19.1325 19 19.6658 18.8071 20.0863 18.4549C20.1424 18.4094 20.1945 18.3617 20.2466 18.3096C20.4505 18.106 20.6124 17.872 20.7289 17.614L20.7442 17.5772C20.872 17.2838 20.9368 16.9701 20.9368 16.6444V7.35585C20.9368 7.20258 20.922 7.04805 20.8929 6.89783ZM4.21995 6.50347C4.25327 6.4547 4.29579 6.40464 4.35006 6.34996C4.61943 6.08073 4.97666 5.93257 5.35571 5.93257H18.581C18.9633 5.93257 19.3207 6.08097 19.5871 6.35048C19.6331 6.39697 19.677 6.44857 19.7153 6.50014L19.8165 6.63607L12.7573 12.7884C12.5397 12.9792 12.2595 13.0842 11.9683 13.0842C11.6799 13.0842 11.4 12.9794 11.1798 12.7886L4.12771 6.63782L4.21995 6.50347ZM3.9373 16.7264C3.93349 16.7011 3.93261 16.673 3.93261 16.6444V7.54818L9.4107 12.327L3.98789 17.0551L3.9373 16.7264ZM19.2867 17.8799C19.0747 18.0022 18.8305 18.0671 18.581 18.0671H5.35575C5.10607 18.0671 4.862 18.0022 4.65012 17.8799L4.42843 17.7514L10.0314 12.8686L10.6455 13.4027C11.0138 13.7224 11.4836 13.8987 11.9684 13.8987C12.455 13.8987 12.9255 13.7224 13.2936 13.4027L13.9074 12.8683L19.5085 17.7517L19.2867 17.8799ZM20.004 16.6444C20.004 16.6725 20.0034 16.7003 19.9999 16.7251L19.9513 17.0569L14.5262 12.3296L20.004 7.5505V16.6444Z" fill="#DFE0E4"/>
</svg>
