<svg width="24" height="24" viewBox="0 0 24 24" fill="none" xmlns="http://www.w3.org/2000/svg">
<path d="M3.95353 8.61072L10.4175 3.54689C11.3483 2.8177 12.6517 2.8177 13.5825 3.54689L20.0465 8.61072C20.8043 9.20439 21 10.0958 21 11.1245C21 11.1245 20.7639 14.7691 19.5949 18.9084C19.2173 19.9615 18.3289 21 17.1067 21H15.918C15.1777 21 14.4713 20.3956 14.4713 19.65L14.5776 16.846C14.5776 15.4122 13.4236 14.2498 12 14.2498C10.5764 14.2498 9.42239 15.4122 9.42239 16.846L9.54168 19.65C9.54168 20.3956 8.82229 21 8.08203 21H6.89335C5.6711 21 4.78269 19.9615 4.40511 18.9084C3.23612 14.7691 3 11.1245 3 11.1245C2.99999 10.0958 3.19571 9.20439 3.95353 8.61072Z" fill="#C1C4CC"/>
</svg>
