<svg width="24" height="24" viewBox="0 0 24 24" fill="none" xmlns="http://www.w3.org/2000/svg">
<path d="M14.2962 4.55068C15.1424 5.26784 15.7284 6.2816 15.8276 7.39797C15.8499 7.71517 15.8567 8.0309 15.8555 8.34886C15.8554 8.399 15.8553 8.44914 15.8553 8.49928C15.8552 8.62934 15.8548 8.7594 15.8545 8.88946C15.8541 9.02294 15.8539 9.15642 15.8538 9.28991C15.8534 9.5504 15.8528 9.8109 15.8521 10.0714C15.8729 10.0712 15.8937 10.0711 15.9152 10.0709C15.9427 10.0708 15.9703 10.0707 15.9986 10.0706C16.0258 10.0704 16.053 10.0703 16.081 10.0701C16.6293 10.0787 17.1726 10.3172 17.5713 10.6903C17.5969 10.7141 17.6225 10.7379 17.6489 10.7624C18.0953 11.2156 18.2967 11.8363 18.2982 12.4623C18.2983 12.4991 18.2983 12.4991 18.2985 12.5367C18.2988 12.6182 18.2988 12.6997 18.2989 12.7812C18.299 12.8399 18.2992 12.8987 18.2994 12.9575C18.2998 13.1166 18.3001 13.2758 18.3002 13.4349C18.3003 13.5346 18.3005 13.6343 18.3006 13.7339C18.3011 14.0465 18.3014 14.359 18.3015 14.6715C18.3017 15.031 18.3023 15.3905 18.3033 15.7499C18.304 16.0287 18.3044 16.3074 18.3044 16.5861C18.3045 16.7521 18.3047 16.9182 18.3053 17.0842C18.3059 17.2407 18.3059 17.3971 18.3056 17.5536C18.3056 17.6106 18.3057 17.6676 18.3061 17.7246C18.3087 18.1889 18.2918 18.6795 18.0612 19.0949C18.0492 19.1177 18.0371 19.1405 18.0246 19.164C17.7319 19.7021 17.2822 20.082 16.7062 20.2877C16.4087 20.3724 16.1244 20.3916 15.8167 20.3913C15.7599 20.3914 15.7599 20.3914 15.7019 20.3916C15.5751 20.3919 15.4483 20.392 15.3214 20.392C15.2304 20.3922 15.1394 20.3923 15.0484 20.3925C14.8013 20.393 14.5541 20.3932 14.307 20.3933C14.1524 20.3934 13.9979 20.3936 13.8434 20.3937C13.415 20.3942 12.9866 20.3945 12.5582 20.3946C12.5308 20.3946 12.5034 20.3946 12.4752 20.3947C12.4477 20.3947 12.4202 20.3947 12.3919 20.3947C12.3363 20.3947 12.2807 20.3947 12.2251 20.3947C12.1837 20.3947 12.1837 20.3947 12.1414 20.3947C11.6948 20.3949 11.2481 20.3955 10.8015 20.3963C10.3422 20.3971 9.88286 20.3975 9.42356 20.3976C9.16598 20.3976 8.90839 20.3978 8.65081 20.3984C8.43137 20.399 8.21193 20.3991 7.99249 20.3988C7.88073 20.3987 7.76897 20.3988 7.65721 20.3992C6.52963 20.4033 6.52963 20.4033 6.07642 20.1565C6.05357 20.1445 6.03072 20.1325 6.00718 20.1201C5.47218 19.8301 5.08498 19.3706 4.89097 18.7927C4.79899 18.4701 4.80038 18.1596 4.80163 17.8273C4.80149 17.7642 4.8013 17.7012 4.80108 17.6381C4.80061 17.4679 4.80079 17.2977 4.80112 17.1274C4.80138 16.9487 4.80114 16.7699 4.80098 16.5911C4.80079 16.291 4.80103 15.9909 4.80153 15.6908C4.80209 15.3446 4.80191 14.9984 4.80134 14.6522C4.80087 14.3542 4.80081 14.0561 4.80107 13.758C4.80124 13.5803 4.80126 13.4027 4.80092 13.225C4.80062 13.0579 4.80083 12.8909 4.80142 12.7238C4.80156 12.6627 4.80152 12.6017 4.80129 12.5407C4.79888 11.8316 4.96423 11.2487 5.46826 10.7247C5.90574 10.305 6.48865 10.0682 7.09289 10.0707C7.13889 10.0709 7.13889 10.0709 7.18583 10.071C7.20905 10.0711 7.23228 10.0713 7.25621 10.0714C7.2559 10.0389 7.2556 10.0064 7.25528 9.9729C7.25247 9.66345 7.25042 9.354 7.24908 9.04454C7.24837 8.88552 7.24741 8.72651 7.24583 8.5675C7.23336 7.27459 7.36436 6.14486 8.21895 5.12016C8.24368 5.09016 8.26841 5.06015 8.29389 5.02923C9.79123 3.28782 12.5342 3.14943 14.2962 4.55068ZM9.49114 5.464C9.44979 5.49724 9.44979 5.49724 9.4076 5.53115C8.8407 6.00798 8.51128 6.7014 8.39087 7.42386C8.39087 8.29755 8.39087 9.17123 8.39087 10.0714C10.4786 10.0714 12.5664 10.0714 14.7174 10.0714C14.8098 8.52829 14.8098 8.52829 14.5541 6.85868C14.5405 6.82024 14.5405 6.82024 14.5266 6.78102C14.2421 6.00378 13.6619 5.37962 12.9166 5.02346C11.802 4.51274 10.4315 4.67109 9.49114 5.464ZM6.25908 11.5499C6.05084 11.8061 5.93692 12.0684 5.9363 12.4001C5.93612 12.4254 5.93593 12.4507 5.93574 12.4767C5.93525 12.5606 5.93549 12.6444 5.93574 12.7283C5.93554 12.7888 5.9353 12.8492 5.93502 12.9097C5.93441 13.0734 5.93445 13.237 5.93464 13.4007C5.93475 13.5376 5.93454 13.6745 5.93433 13.8114C5.93385 14.1344 5.9339 14.4575 5.9343 14.7805C5.93469 15.1132 5.93421 15.446 5.93328 15.7787C5.93252 16.0649 5.9323 16.3511 5.9325 16.6372C5.93261 16.8079 5.93253 16.9786 5.93194 17.1493C5.9314 17.3099 5.93154 17.4705 5.93219 17.6311C5.93232 17.6898 5.93221 17.7485 5.93185 17.8073C5.92937 18.2442 5.97717 18.614 6.29347 18.9424C6.60647 19.212 6.97015 19.2676 7.37153 19.2649C7.42767 19.2651 7.42767 19.2651 7.48495 19.2654C7.60937 19.2658 7.73378 19.2655 7.8582 19.2652C7.9478 19.2653 8.03741 19.2655 8.12701 19.2657C8.34452 19.2662 8.56202 19.2661 8.77953 19.2658C8.95639 19.2655 9.13324 19.2655 9.3101 19.2656C9.34795 19.2656 9.34795 19.2656 9.38656 19.2657C9.43783 19.2657 9.4891 19.2657 9.54037 19.2658C10.0204 19.266 10.5004 19.2657 10.9804 19.2652C11.3917 19.2647 11.8031 19.2648 12.2144 19.2653C12.6928 19.2658 13.1712 19.266 13.6496 19.2657C13.7007 19.2657 13.7517 19.2656 13.8028 19.2656C13.8279 19.2656 13.853 19.2656 13.8789 19.2656C14.0555 19.2655 14.232 19.2656 14.4086 19.2659C14.6464 19.2662 14.8842 19.266 15.122 19.2654C15.2092 19.2652 15.2964 19.2653 15.3836 19.2655C15.5028 19.2658 15.622 19.2654 15.7411 19.2649C15.7926 19.2652 15.7926 19.2652 15.8452 19.2656C16.2371 19.2623 16.5655 19.1526 16.8484 18.8759C17.1644 18.5095 17.179 18.0593 17.1765 17.5994C17.1767 17.5418 17.1769 17.4842 17.1772 17.4266C17.1778 17.2714 17.1776 17.1163 17.1771 16.9611C17.1768 16.798 17.1771 16.6348 17.1773 16.4716C17.1776 16.1978 17.1773 15.9239 17.1766 15.65C17.1759 15.3344 17.1761 15.0187 17.1769 14.7031C17.1775 14.431 17.1776 14.1589 17.1772 13.8869C17.177 13.7248 17.177 13.5628 17.1774 13.4008C17.1778 13.2484 17.1775 13.096 17.1767 12.9436C17.1766 12.888 17.1766 12.8324 17.1769 12.7768C17.1791 12.3434 17.1437 11.9239 16.8483 11.582C16.5248 11.2649 16.145 11.19 15.7044 11.1927C15.6672 11.1925 15.63 11.1924 15.5916 11.1922C15.4679 11.1917 15.3442 11.1919 15.2205 11.1922C15.1314 11.192 15.0423 11.1917 14.9532 11.1914C14.7369 11.1909 14.5206 11.1908 14.3043 11.191C14.1284 11.1911 13.9524 11.1911 13.7765 11.1909C13.7514 11.1909 13.7263 11.1909 13.7004 11.1908C13.6494 11.1908 13.5984 11.1907 13.5474 11.1907C13.0697 11.1902 12.592 11.1904 12.1143 11.1908C11.6781 11.1911 11.2418 11.1907 10.8056 11.1899C10.3568 11.189 9.90796 11.1887 9.45915 11.1889C9.20752 11.189 8.9559 11.189 8.70428 11.1884C8.46761 11.1878 8.23094 11.188 7.99427 11.1886C7.90763 11.1887 7.82099 11.1886 7.73435 11.1883C6.93384 11.1672 6.93384 11.1672 6.25908 11.5499Z" fill="#DFE0E4"/>
<path d="M12.0673 13.5149C12.2665 13.6909 12.3668 13.8373 12.3983 14.1011C12.4056 14.2847 12.4069 14.4679 12.4057 14.6516C12.4058 14.7197 12.406 14.7878 12.4062 14.8559C12.4065 14.9982 12.4061 15.1405 12.4052 15.2829C12.4042 15.4646 12.4048 15.6463 12.4059 15.828C12.4066 15.9685 12.4064 16.109 12.4059 16.2495C12.4057 16.3165 12.4059 16.3835 12.4063 16.4505C12.4097 17.1006 12.4097 17.1006 12.1933 17.3762C11.9799 17.5648 11.7702 17.6228 11.4902 17.6106C11.2445 17.5369 11.0915 17.4322 10.9277 17.2356C10.8383 17.0544 10.8217 16.9061 10.8203 16.7052C10.8197 16.6463 10.8191 16.5875 10.8185 16.5269C10.8183 16.463 10.8182 16.3991 10.8182 16.3353C10.8179 16.2692 10.8175 16.2032 10.8172 16.1372C10.8167 15.9989 10.8165 15.8607 10.8165 15.7224C10.8165 15.546 10.8153 15.3697 10.8137 15.1933C10.8126 15.0569 10.8124 14.9206 10.8125 14.7842C10.8124 14.7192 10.8119 14.6543 10.8112 14.5893C10.8074 14.2185 10.8125 13.9397 11.0214 13.6262C11.3498 13.3594 11.6878 13.3287 12.0673 13.5149Z" fill="#DFE0E4"/>
</svg>
