<svg width="18" height="18" viewBox="0 0 18 18" fill="none" xmlns="http://www.w3.org/2000/svg">
<path d="M5.79344 6.51732H11.5868M5.79344 9.41398H10.1384M13.0351 2.89648C13.6113 2.89648 14.1639 3.12537 14.5713 3.53279C14.9787 3.94022 15.2076 4.4928 15.2076 5.06898V10.8623C15.2076 11.4385 14.9787 11.9911 14.5713 12.3985C14.1639 12.8059 13.6113 13.0348 13.0351 13.0348H9.41427L5.79344 15.2073V13.0348H4.34511C3.76892 13.0348 3.21634 12.8059 2.80892 12.3985C2.4015 11.9911 2.17261 11.4385 2.17261 10.8623V5.06898C2.17261 4.4928 2.4015 3.94022 2.80892 3.53279C3.21634 3.12537 3.76892 2.89648 4.34511 2.89648H13.0351Z" stroke="white" stroke-width="1.3" stroke-linecap="round" stroke-linejoin="round"/>
</svg>
