<svg width="18" height="18" viewBox="0 0 18 18" fill="none" xmlns="http://www.w3.org/2000/svg">
<path d="M11.2233 13.0352C11.2233 14.4349 10.0885 15.5696 8.68878 15.5696C7.28902 15.5696 6.1543 14.4349 6.1543 13.0352" stroke="#F6F6F6" stroke-width="1.08621" stroke-linecap="round" stroke-linejoin="round"/>
<path d="M13.9254 13.0327H3.45278C2.74536 13.0327 2.17188 12.4592 2.17188 11.7518C2.17188 11.4121 2.30683 11.0863 2.54704 10.8461L2.98387 10.4093C3.39127 10.0019 3.62015 9.44926 3.62015 8.87314V6.87756C3.62015 4.07805 5.88961 1.80859 8.68912 1.80859C11.4886 1.80859 13.7581 4.07804 13.7581 6.87756V8.87314C13.7581 9.44926 13.987 10.0019 14.3944 10.4093L14.8312 10.8461C15.0714 11.0863 15.2064 11.4121 15.2064 11.7518C15.2064 12.4592 14.6328 13.0327 13.9254 13.0327Z" stroke="#F6F6F6" stroke-width="1.5" stroke-linecap="round" stroke-linejoin="round"/>
<circle cx="12.3106" cy="2.89655" r="2.89655" fill="#FF2222"/>
</svg>
