<svg width="32" height="32" viewBox="0 0 32 32" fill="none" xmlns="http://www.w3.org/2000/svg">
<rect width="32" height="32" rx="16" fill="white" fill-opacity="0.1"/>
<path fill-rule="evenodd" clip-rule="evenodd" d="M14.7921 6.44074C15.1923 6.17005 15.6645 6.02539 16.1477 6.02539C16.6309 6.02539 17.1031 6.17005 17.5033 6.44074L18.6755 7.23274C18.8471 7.34978 19.0486 7.4149 19.2554 7.42194L20.6696 7.46946C21.1527 7.4855 21.62 7.64588 22.0112 7.92993C22.4024 8.21398 22.6995 8.60867 22.8643 9.06314L23.3465 10.3937C23.4169 10.5882 23.5419 10.7598 23.7047 10.8865L24.8214 11.7568C25.2025 12.0539 25.4859 12.4582 25.6352 12.9177C25.7846 13.3772 25.7929 13.8709 25.6592 14.3352L25.2676 15.6957C25.2103 15.8946 25.2103 16.1057 25.2676 16.3047L25.6592 17.6643C25.7931 18.1287 25.7848 18.6226 25.6355 19.0823C25.4862 19.542 25.2027 19.9464 24.8214 20.2435L23.7047 21.1139C23.5413 21.2411 23.4171 21.4119 23.3465 21.6067L22.8643 22.9372C22.6995 23.3915 22.4025 23.7861 22.0115 24.0702C21.6205 24.3542 21.1535 24.5147 20.6705 24.5309L19.2563 24.5784C19.0491 24.5853 18.8481 24.6506 18.6764 24.7667L17.5042 25.5596C17.1039 25.8303 16.6318 25.975 16.1486 25.975C15.6654 25.975 15.1932 25.8303 14.7929 25.5596L13.6208 24.7667C13.4491 24.6506 13.248 24.5853 13.0409 24.5784L11.6267 24.5309C11.1437 24.5147 10.6766 24.3542 10.2856 24.0702C9.8946 23.7861 9.5976 23.3915 9.43285 22.9372L8.95061 21.6067C8.88 21.4119 8.75585 21.2411 8.59245 21.1139L7.47573 20.2435C7.09465 19.9465 6.8112 19.5422 6.6619 19.0827C6.51259 18.6231 6.50426 18.1294 6.63797 17.6651L7.02957 16.3047C7.08688 16.1057 7.08688 15.8946 7.02957 15.6957L6.63797 14.3352C6.50426 13.8709 6.51259 13.3772 6.6619 12.9177C6.8112 12.4582 7.09465 12.0539 7.47573 11.7568L8.59245 10.8865C8.75585 10.7592 8.88 10.5884 8.95061 10.3937L9.43285 9.06314C9.5976 8.60881 9.8946 8.21421 10.2856 7.93017C10.6766 7.64614 11.1437 7.48567 11.6267 7.46946L13.0409 7.42194C13.248 7.41506 13.4491 7.34978 13.6208 7.23362L14.7921 6.44074ZM16.7633 7.5337C16.5813 7.41074 16.3668 7.34504 16.1473 7.34504C15.9277 7.34504 15.7132 7.41074 15.5313 7.5337L14.3591 8.32658C13.9817 8.58161 13.5401 8.72497 13.0849 8.74018L11.6698 8.78858C11.4503 8.79597 11.238 8.86889 11.0604 8.99797C10.8827 9.12704 10.7477 9.30636 10.6728 9.51282L10.1905 10.8434C10.0353 11.2717 9.76228 11.6475 9.40293 11.9275L8.28621 12.7979C8.11292 12.9329 7.98401 13.1166 7.9161 13.3256C7.84819 13.5345 7.84438 13.7589 7.90517 13.97L8.29765 15.3296C8.424 15.7677 8.424 16.2326 8.29765 16.6707L7.90429 18.0295C7.8435 18.2405 7.84731 18.465 7.91522 18.6739C7.98313 18.8828 8.11204 19.0666 8.28533 19.2016L9.40205 20.0711C9.76109 20.3518 10.0339 20.7275 10.1897 21.1561L10.6719 22.4867C10.825 22.9091 11.2201 23.1959 11.6689 23.2109L13.084 23.2584C13.5392 23.2736 13.9808 23.417 14.3582 23.672L15.5304 24.4658C15.7123 24.5887 15.9268 24.6544 16.1464 24.6544C16.3659 24.6544 16.5805 24.5887 16.7624 24.4658L17.9354 23.6729C18.3127 23.4176 18.7544 23.2739 19.2097 23.2584L20.6247 23.2109C20.8442 23.2035 21.0565 23.1306 21.2342 23.0015C21.4118 22.8724 21.5468 22.6931 21.6217 22.4867L22.104 21.1561C22.2591 20.7275 22.5321 20.3513 22.8916 20.0711L24.0083 19.2016C24.1816 19.0666 24.3105 18.8828 24.3784 18.6739C24.4463 18.465 24.4501 18.2405 24.3893 18.0295L23.9969 16.669C23.8707 16.2311 23.8707 15.7666 23.9969 15.3287L24.3893 13.9691C24.4501 13.758 24.4463 13.5336 24.3784 13.3247C24.3105 13.1158 24.1816 12.932 24.0083 12.797L22.8916 11.9267C22.5322 11.6466 22.2592 11.2708 22.104 10.8425L21.6217 9.51194C21.5468 9.30548 21.4118 9.12616 21.2342 8.99709C21.0565 8.86801 20.8442 8.79509 20.6247 8.7877L19.2097 8.74018C18.7544 8.72497 18.3128 8.58161 17.9354 8.32658L16.7633 7.5337Z" fill="#2B8FFF"/>
<path fill-rule="evenodd" clip-rule="evenodd" d="M9.32666 15.9997C9.32666 15.1041 9.50306 14.2172 9.8458 13.3898C10.1885 12.5623 10.6909 11.8105 11.3242 11.1772C11.9575 10.5439 12.7093 10.0416 13.5368 9.69883C14.3642 9.35609 15.251 9.17969 16.1467 9.17969C17.0423 9.17969 17.9291 9.35609 18.7566 9.69883C19.584 10.0416 20.3358 10.5439 20.9691 11.1772C21.6024 11.8105 22.1048 12.5623 22.4475 13.3898C22.7903 14.2172 22.9667 15.1041 22.9667 15.9997C22.9667 17.8085 22.2481 19.5432 20.9691 20.8222C19.6901 22.1012 17.9554 22.8197 16.1467 22.8197C14.3379 22.8197 12.6032 22.1012 11.3242 20.8222C10.0452 19.5432 9.32666 17.8085 9.32666 15.9997ZM12.8467 13.7997C12.8467 13.6552 12.8751 13.5122 12.9304 13.3787C12.9857 13.2453 13.0667 13.124 13.1688 13.0219C13.271 12.9197 13.3923 12.8387 13.5257 12.7834C13.6592 12.7281 13.8022 12.6997 13.9467 12.6997C14.0911 12.6997 14.2342 12.7281 14.3676 12.7834C14.5011 12.8387 14.6223 12.9197 14.7245 13.0219C14.8266 13.124 14.9076 13.2453 14.9629 13.3787C15.0182 13.5122 15.0467 13.6552 15.0467 13.7997C15.0467 14.0914 14.9308 14.3712 14.7245 14.5775C14.5182 14.7838 14.2384 14.8997 13.9467 14.8997C13.6549 14.8997 13.3751 14.7838 13.1688 14.5775C12.9626 14.3712 12.8467 14.0914 12.8467 13.7997ZM18.3467 17.0997C18.0549 17.0997 17.7751 17.2156 17.5688 17.4219C17.3626 17.6282 17.2467 17.9079 17.2467 18.1997C17.2467 18.4914 17.3626 18.7712 17.5688 18.9775C17.7751 19.1838 18.0549 19.2997 18.3467 19.2997C18.6384 19.2997 18.9182 19.1838 19.1245 18.9775C19.3308 18.7712 19.4467 18.4914 19.4467 18.1997C19.4467 17.9079 19.3308 17.6282 19.1245 17.4219C18.9182 17.2156 18.6384 17.0997 18.3467 17.0997ZM18.9468 14.1332C19.0671 14.0088 19.1337 13.8421 19.1323 13.669C19.1309 13.496 19.0615 13.3304 18.9392 13.208C18.8169 13.0856 18.6514 13.0161 18.4784 13.0145C18.3053 13.0129 18.1386 13.0794 18.014 13.1995L13.3465 17.8653C13.2263 17.9898 13.1599 18.1566 13.1615 18.3296C13.1631 18.5027 13.2325 18.6682 13.355 18.7905C13.4774 18.9128 13.643 18.9821 13.816 18.9836C13.9891 18.985 14.1558 18.9184 14.2802 18.7981L18.9468 14.1332Z" fill="#2B8FFF"/>
</svg>
