<svg width="20" height="20" viewBox="0 0 20 20" fill="none" xmlns="http://www.w3.org/2000/svg">
<path d="M6.16888 4.49054H12.3398C12.3784 4.49054 12.4165 4.48294 12.4521 4.46819C12.4878 4.45343 12.5201 4.4318 12.5474 4.40454C12.5746 4.37728 12.5963 4.34491 12.611 4.30929C12.6258 4.27367 12.6334 4.23549 12.6334 4.19694C12.6334 4.15839 12.6258 4.12021 12.611 4.08459C12.5963 4.04897 12.5746 4.0166 12.5474 3.98934C12.5201 3.96207 12.4878 3.94045 12.4521 3.92569C12.4165 3.91094 12.3784 3.90334 12.3398 3.90334H6.16888C6.09102 3.90334 6.01634 3.93427 5.96128 3.98933C5.90622 4.04439 5.87529 4.11907 5.87529 4.19694C5.87529 4.27481 5.90622 4.34948 5.96128 4.40454C6.01634 4.4596 6.09102 4.49054 6.16888 4.49054ZM0.649944 7.36116H6.82082C6.89868 7.36116 6.97335 7.33023 7.02841 7.27517C7.08346 7.22011 7.11439 7.14544 7.11439 7.06758C7.11439 6.98972 7.08346 6.91505 7.02841 6.85999C6.97335 6.80493 6.89868 6.774 6.82082 6.774H0.649944C0.572083 6.774 0.49741 6.80493 0.442354 6.85999C0.387298 6.91505 0.356368 6.98972 0.356368 7.06758C0.356368 7.14544 0.387298 7.22011 0.442354 7.27517C0.49741 7.33023 0.572083 7.36116 0.649944 7.36116ZM2.30653 10.3819C2.30653 10.4597 2.33746 10.5344 2.39252 10.5895C2.44758 10.6446 2.52226 10.6755 2.60013 10.6755H8.771C8.84802 10.6742 8.92144 10.6427 8.97545 10.5878C9.02946 10.5329 9.05973 10.4589 9.05973 10.3819C9.05973 10.3049 9.02946 10.2309 8.97545 10.176C8.92144 10.1211 8.84802 10.0896 8.771 10.0883H2.60013C2.56157 10.0883 2.52339 10.0959 2.48777 10.1107C2.45215 10.1254 2.41979 10.147 2.39252 10.1743C2.36526 10.2015 2.34363 10.2339 2.32888 10.2695C2.31412 10.3051 2.30653 10.3433 2.30653 10.3819ZM5.83814 13.7941H0.293577C0.215715 13.7941 0.141043 13.825 0.0859867 13.8801C0.0309303 13.9351 0 14.0098 0 14.0877C0 14.1655 0.0309303 14.2402 0.0859867 14.2953C0.141043 14.3503 0.215715 14.3813 0.293577 14.3813H5.83814C5.916 14.3813 5.99068 14.3503 6.04573 14.2953C6.10079 14.2402 6.13172 14.1655 6.13172 14.0877C6.13172 14.0098 6.10079 13.9351 6.04573 13.8801C5.99068 13.825 5.916 13.7941 5.83814 13.7941ZM15.8147 6.33129C16.7003 6.33129 17.4182 5.61327 17.4182 4.72764C17.4182 3.84201 16.7002 3.12402 15.8147 3.12402C14.9289 3.12402 14.2108 3.84205 14.2108 4.72764C14.2108 5.61327 14.9288 6.33129 15.8147 6.33129Z" fill="white"/>
<path d="M18.4524 5.86924C17.5316 7.15904 16.2986 7.3084 14.9718 6.52072C14.8815 6.46717 14.4807 6.24639 14.392 6.19366C12.2575 4.92653 10.1256 5.42345 8.6958 7.4257C8.08823 8.2773 9.49344 9.0845 10.0942 8.24282C10.8329 7.20832 11.7723 6.90898 12.7996 7.23665C12.2736 8.14971 11.8137 9.05723 11.1647 10.3466C10.5156 11.6359 9.0825 12.6656 7.70545 11.8603C6.71183 11.2795 5.81579 12.707 6.80642 13.2859C8.68641 14.3847 10.8907 13.71 12.0161 12.2817C12.0551 12.3026 12.0963 12.3214 12.1416 12.3372C13.0609 12.6575 14.2659 13.5102 14.6331 13.8124C15.0002 14.1146 15.6309 15.6542 16.0054 16.4277C16.4598 17.3663 17.9271 16.6827 17.4711 15.7401C17.0465 14.8625 16.3339 13.1109 15.7781 12.6677C15.3322 12.3123 14.4666 11.6508 13.7324 11.2755C14.2291 10.3134 14.7463 9.3617 15.2907 8.42641C17.0262 8.95814 18.6757 8.33179 19.8505 6.68615C20.4585 5.83467 19.0537 5.02748 18.4524 5.86924Z" fill="white"/>
</svg>
