<svg width="24" height="24" viewBox="0 0 24 24" fill="none" xmlns="http://www.w3.org/2000/svg">
<path d="M3.08579 9C2.9043 11.8416 3.02272 14.2478 3.32857 17.3698C3.42621 18.3664 4.37117 19.1624 5.56642 19.2474C10.3059 19.5841 13.6523 19.5849 18.453 19.2457C19.6454 19.1615 20.5904 18.3697 20.6891 17.3756C21.0019 14.225 21.0925 11.8182 20.9112 9M3.08579 9C3.13455 8.2366 3.20495 7.44177 3.29918 6.59319C3.40777 5.61526 4.34515 4.8448 5.51901 4.76051C10.3443 4.41402 13.6947 4.41302 18.4814 4.75838C19.661 4.84349 20.5996 5.62169 20.704 6.6048C20.7935 7.44833 20.8623 8.23915 20.9112 9M3.08579 9H20.9112M6.5 15.5H8.5M11.5 15.5H15.5" stroke="#D0D5DD" stroke-width="1.5" stroke-linecap="round"/>
</svg>
