<svg width="24" height="24" viewBox="0 0 24 24" fill="none" xmlns="http://www.w3.org/2000/svg">
<path d="M17.3627 8.4525H8.46769V6.5625C8.46903 5.74079 8.75414 4.94475 9.27482 4.30904C9.79549 3.67334 10.5198 3.23699 11.3251 3.0738C12.1305 2.91061 12.9675 3.03061 13.6945 3.41348C14.4216 3.79636 14.9941 4.41862 15.3152 5.175C15.4802 5.5575 15.9152 5.7375 16.2977 5.5725C16.6802 5.415 16.8602 4.9725 16.6952 4.59C16.3078 3.6732 15.6585 2.89104 14.8287 2.34141C13.999 1.79178 13.0255 1.4991 12.0302 1.5C9.2402 1.5 6.96769 3.7725 6.96769 6.5625V8.4525H6.6377C4.9802 8.4525 3.6377 9.795 3.6377 11.4525V19.5C3.6377 21.1575 4.9802 22.5 6.6377 22.5H17.3627C19.0202 22.5 20.3627 21.1575 20.3627 19.5V11.4525C20.3627 9.8025 19.0202 8.4525 17.3627 8.4525ZM18.8627 19.5C18.8627 20.325 18.1877 21 17.3627 21H6.6377C5.8127 21 5.1377 20.325 5.1377 19.5V11.4525C5.1377 10.6275 5.8127 9.9525 6.6377 9.9525H17.3627C18.1877 9.9525 18.8627 10.6275 18.8627 11.4525V19.5ZM13.3502 15.2625C13.3502 15.7275 13.1102 16.1475 12.7502 16.3875V18.225C12.7502 18.6375 12.4127 18.975 12.0002 18.975C11.5877 18.975 11.2502 18.6375 11.2502 18.225V16.3875C10.8902 16.1475 10.6502 15.7275 10.6502 15.2625C10.6502 14.9045 10.7924 14.5611 11.0456 14.3079C11.2988 14.0547 11.6422 13.9125 12.0002 13.9125C12.3582 13.9125 12.7016 14.0547 12.9548 14.3079C13.208 14.5611 13.3502 14.9045 13.3502 15.2625Z" fill="white"/>
</svg>
